<svg width="1440" height="1024" viewBox="0 0 1440 1024" fill="none" xmlns="http://www.w3.org/2000/svg">
<g clip-path="url(#clip0_789_8111)">
<mask id="mask0_789_8111" style="mask-type:luminance" maskUnits="userSpaceOnUse" x="0" y="0" width="1440" height="1024">
<path d="M1440 0H0V1024H1440V0Z" fill="white"/>
</mask>
<g mask="url(#mask0_789_8111)">
<path d="M1440 0H0V1024H1440V0Z" fill="#FAFAFA"/>
<path d="M-1 985.001C231.667 988.501 905.5 853 942 525C976.727 212.932 747 115.078 613.5 150C480 184.922 391 379.5 480 582.5C563.739 773.5 870 903.5 1200.5 684.5C1394.2 556.15 1296 181 1440.5 181" fill="#FAFAFA"/>
<path d="M-1 985.001C231.667 988.501 905.5 853 942 525C976.727 212.932 747 115.078 613.5 150C480 184.922 391 379.5 480 582.5C563.739 773.5 870 903.5 1200.5 684.5C1394.2 556.15 1296 181 1440.5 181" stroke="url(#paint0_linear_789_8111)" stroke-width="106" stroke-linecap="round"/>
<path d="M-104 362C-81 400 -61.5 467 93.5 415.5C231.467 369.659 221.5 -87.5 28 -87.5C-165.5 -87.5 32.5 345.5 299 32.5C512.2 -217.9 387.833 -432.833 299 -509" fill="#FAFAFA"/>
<path d="M-104 362C-81 400 -61.5 467 93.5 415.5C231.467 369.659 221.5 -87.5 28 -87.5C-165.5 -87.5 32.5 345.5 299 32.5C512.2 -217.9 387.833 -432.833 299 -509" stroke="url(#paint1_linear_789_8111)" stroke-width="106" stroke-linecap="round"/>
<path d="M1564 1572C1751.22 1572 1903 1420.22 1903 1233C1903 1045.78 1751.22 894 1564 894C1376.78 894 1225 1045.78 1225 1233C1225 1420.22 1376.78 1572 1564 1572Z" fill="#FAFAFA" stroke="url(#paint2_linear_789_8111)" stroke-width="106"/>
</g>
</g>
<defs>
<linearGradient id="paint0_linear_789_8111" x1="1391" y1="21.0001" x2="-0.999928" y2="1010.5" gradientUnits="userSpaceOnUse">
<stop stop-color="#24BC61" stop-opacity="0.2"/>
<stop offset="0.270833" stop-color="#9BC685" stop-opacity="0.2"/>
<stop offset="0.666667" stop-color="#9DAF95" stop-opacity="0.2"/>
<stop offset="1" stop-color="#9F9F9F" stop-opacity="0"/>
</linearGradient>
<linearGradient id="paint1_linear_789_8111" x1="298.5" y1="-12" x2="-144.5" y2="643.5" gradientUnits="userSpaceOnUse">
<stop stop-color="#9ACE80" stop-opacity="0"/>
<stop offset="1" stop-color="#EFF0EF" stop-opacity="0.6"/>
</linearGradient>
<linearGradient id="paint2_linear_789_8111" x1="1465.5" y1="894" x2="1306.5" y2="1145.5" gradientUnits="userSpaceOnUse">
<stop offset="0.154016" stop-color="#9ACE80" stop-opacity="0.1"/>
<stop offset="1" stop-color="#E9EEE7" stop-opacity="0"/>
</linearGradient>
<clipPath id="clip0_789_8111">
<rect width="1440" height="1024" fill="white"/>
</clipPath>
</defs>
</svg>
